<svg width="20" height="20" viewBox="0 0 20 20" fill="none" xmlns="http://www.w3.org/2000/svg">
<path d="M13.3333 5.83333C13.3333 6.4926 13.1378 7.13707 12.7716 7.68523C12.4053 8.2334 11.8847 8.66064 11.2756 8.91293C10.6665 9.16522 9.99631 9.23124 9.34971 9.10262C8.70311 8.974 8.10916 8.65653 7.64299 8.19036C7.17681 7.72418 6.85934 7.13024 6.73073 6.48363C6.60211 5.83703 6.66812 5.16681 6.92041 4.55772C7.1727 3.94863 7.59995 3.42804 8.14811 3.06177C8.69627 2.6955 9.34074 2.5 10 2.5C10.8841 2.5 11.7319 2.85119 12.357 3.47631C12.9822 4.10143 13.3333 4.94928 13.3333 5.83333ZM13.3333 12.5H6.66668C5.78262 12.5 4.93478 12.8512 4.30965 13.4763C3.68453 14.1014 3.33334 14.9493 3.33334 15.8333V15.8333C3.33334 16.2754 3.50894 16.6993 3.8215 17.0118C4.13406 17.3244 4.55798 17.5 5.00001 17.5H15C15.442 17.5 15.866 17.3244 16.1785 17.0118C16.4911 16.6993 16.6667 16.2754 16.6667 15.8333C16.6667 14.9493 16.3155 14.1014 15.6904 13.4763C15.0652 12.8512 14.2174 12.5 13.3333 12.5V12.5Z" stroke="#141414" stroke-width="0.666667" stroke-linecap="round" stroke-linejoin="round"/>
</svg>
