<svg width="24" height="20" viewBox="0 0 24 20" fill="none" xmlns="http://www.w3.org/2000/svg">
<path d="M17.92 17.5H6.07999C5.94165 17.5003 5.80473 17.4768 5.67788 17.4308C5.55103 17.3848 5.43701 17.3174 5.34302 17.2328C5.24904 17.1482 5.17713 17.0483 5.13186 16.9394C5.08658 16.8304 5.06892 16.7149 5.07999 16.6L5.92999 7.4333C5.95014 7.22403 6.06433 7.02882 6.24973 6.88668C6.43512 6.74455 6.67807 6.66596 6.92999 6.66663H17.07C17.3219 6.66596 17.5649 6.74455 17.7503 6.88668C17.9356 7.02882 18.0498 7.22403 18.07 7.4333L18.92 16.6C18.9311 16.7149 18.9134 16.8304 18.8681 16.9394C18.8228 17.0483 18.7509 17.1482 18.657 17.2328C18.563 17.3174 18.4489 17.3848 18.3221 17.4308C18.1952 17.4768 18.0583 17.5003 17.92 17.5V17.5Z" stroke="#141414" stroke-width="0.666667" stroke-linecap="round" stroke-linejoin="round"/>
<path d="M9 9.16667V5C9 4.33696 9.31607 3.70107 9.87868 3.23223C10.4413 2.76339 11.2044 2.5 12 2.5V2.5C12.7956 2.5 13.5587 2.76339 14.1213 3.23223C14.6839 3.70107 15 4.33696 15 5V9.16667" stroke="#141414" stroke-width="0.666667" stroke-linecap="round" stroke-linejoin="round"/>
</svg>
