<svg width="20" height="20" viewBox="0 0 20 20" fill="none" xmlns="http://www.w3.org/2000/svg">
<path d="M16.3083 4.53337C17.0722 5.30024 17.501 6.33851 17.501 7.42087C17.501 8.50324 17.0722 9.54151 16.3083 10.3084L10 16.6667L3.69167 10.3084C3.12437 9.73725 2.73814 9.01147 2.58134 8.2219C2.42453 7.43233 2.50412 6.61404 2.81012 5.86948C3.11613 5.12492 3.63497 4.48717 4.30169 4.03605C4.9684 3.58494 5.75337 3.34052 6.55833 3.33337C7.6347 3.3399 8.66496 3.77117 9.425 4.53337C9.64667 4.75273 9.83986 4.99911 10 5.26671C10.1601 4.99911 10.3533 4.75273 10.575 4.53337C10.9495 4.15342 11.3958 3.8517 11.8879 3.64576C12.38 3.43982 12.9082 3.33377 13.4417 3.33377C13.9751 3.33377 14.5033 3.43982 14.9954 3.64576C15.4876 3.8517 15.9338 4.15342 16.3083 4.53337V4.53337Z" stroke="#141414" stroke-width="0.666667" stroke-linecap="round" stroke-linejoin="round"/>
</svg>
